_________________________  Visit us at _________________________
  
http://p2pdl.com  ____________________________  http://p2pdl.com

Britney Spears Live The Femme Fatale Tour 2011 BRRip 720p x264 - PRiSTiNE

Genre: Music
Plot: A live concert performance of Grammy-winning pop phenomenon 
Britney Spears at the Air Canada Centre in Toronto.
Director: Ted Kenney, Daniel 'Cloud' Campos
Stars: Britney Spears, Nicki Minaj, Sabi
Rated: PG 13

Info: 
http://www.imdb.com/title/tt2022347/

General
Complete name                  : Britney Spears Live The Femme Fatale Tour 2011 BRRip 720p x264 - PRiSTiNE.mp4
Format                         : MPEG-4
Format profile                 : Base Media
Codec ID                       : isom
File size                      : 788 MiB
Duration                       : 1h 25mn
Overall bit rate mode          : Variable
Overall bit rate               : 1 282 Kbps

Source                         : 1080p MKV AC3 (Thanks)

Video
Format                         : AVC
Format/Info                    : Advanced Video Codec
Bit rate                       : 1 199 Kbps
Width                          : 1 280 pixels
Height                         : 720 pixels
Display aspect ratio           : 16:9
Frame rate mode                : Constant
Frame rate                     : 23.976 fps
Bit depth                      : 8 bits
Bits/(Pixel*Frame)             : 0.054
Stream size                    : 737 MiB (94%)
Writing library                : x264 core 129 r2245 bc13772

Audio
Format                         : AAC
Duration                       : 1h 25mn
Bit rate mode                  : Variable
Bit rate                       : 80.0 Kbps
Channel(s)                     : 2 channels
Channel positions              : Front: L R
Sampling rate                  : 48.0 KHz / 24.0 KHz
Stream size                    : 49.2 MiB (6%)
Language                       : English

Subtitle                       : No

Screens: 
http://imgr.us/images/qcuwsnxt8c5xu2jb25.jpg 
http://imgr.us/images/okrik371z8envdksjy.jpg 
http://imgr.us/images/nn2a4qk1iw70dmz6fvs.jpg 
http://imgr.us/images/e4xr3f8jil4ddiuaf.jpg 
http://imgr.us/images/u6jyw2qwdzt5kpfzqjsp.jpg

Thumbs: 
http://imgr.us/images/oxbilnnew1aohpth66or.jpg

----------------------------------------------------------------------------------------------------
Encoded using revolutionary 10bit encoding, which enables us to provide you more crispier 
and sharper images at small sizes, just make sure you follow our instructions without a fault.
Recommend to you to use latest version of VLC player. Install K-Lite Codec Pack or shark007 codecs
in case of any kind of problem in playback (For non-VLC Media Player users). Alternatively, install
Core AVC codecs, the fastest decoder that there is coupled with Community Center Codec Pack and play
on Windows Media Player Classic. Check sample to be sure.
Enjoy!